<?xml version="1.0" encoding="utf-8" standalone="no"?>
<!DOCTYPE svg PUBLIC "-//W3C//DTD SVG 1.1//EN"
  "http://www.w3.org/Graphics/SVG/1.1/DTD/svg11.dtd">
<svg xmlns:xlink="http://www.w3.org/1999/xlink" width="720pt" height="432pt" viewBox="0 0 720 432" xmlns="http://www.w3.org/2000/svg" version="1.1">
 <metadata>
  <rdf:RDF xmlns:dc="http://purl.org/dc/elements/1.1/" xmlns:cc="http://creativecommons.org/ns#" xmlns:rdf="http://www.w3.org/1999/02/22-rdf-syntax-ns#">
   <cc:Work>
    <dc:type rdf:resource="http://purl.org/dc/dcmitype/StillImage"/>
    <dc:date>2026-02-07T18:52:40.156355</dc:date>
    <dc:format>image/svg+xml</dc:format>
    <dc:creator>
     <cc:Agent>
      <dc:title>Matplotlib v3.10.8, https://matplotlib.org/</dc:title>
     </cc:Agent>
    </dc:creator>
   </cc:Work>
  </rdf:RDF>
 </metadata>
 <defs>
  <style type="text/css">*{stroke-linejoin: round; stroke-linecap: butt}</style>
 </defs>
 <g id="figure_1">
  <g id="patch_1">
   <path d="M 0 432 
L 720 432 
L 720 0 
L 0 0 
z
" style="fill: #ffffff"/>
  </g>
  <g id="axes_1">
   <g id="patch_2">
    <path d="M 44.66 390.04 
L 709.2 390.04 
L 709.2 26.88 
L 44.66 26.88 
z
" style="fill: #ffffff"/>
   </g>
   <g id="matplotlib.axis_1">
    <g id="xtick_1">
     <g id="line2d_1">
      <defs>
       <path id="m6d21d8f456" d="M 0 0 
L 0 3.5 
" style="stroke: #000000; stroke-width: 0.8"/>
      </defs>
      <g>
       <use xlink:href="#m6d21d8f456" x="74.866364" y="390.04" style="stroke: #000000; stroke-width: 0.8"/>
      </g>
     </g>
     <g id="text_1">
      <!-- 0 -->
      <g transform="translate(71.685114 404.638438) scale(0.1 -0.1)">
       <defs>
        <path id="DejaVuSans-30" d="M 2034 4250 
Q 1547 4250 1301 3770 
Q 1056 3291 1056 2328 
Q 1056 1369 1301 889 
Q 1547 409 2034 409 
Q 2525 409 2770 889 
Q 3016 1369 3016 2328 
Q 3016 3291 2770 3770 
Q 2525 4250 2034 4250 
z
M 2034 4750 
Q 2819 4750 3233 4129 
Q 3647 3509 3647 2328 
Q 3647 1150 3233 529 
Q 2819 -91 2034 -91 
Q 1250 -91 836 529 
Q 422 1150 422 2328 
Q 422 3509 836 4129 
Q 1250 4750 2034 4750 
z
" transform="scale(0.015625)"/>
       </defs>
       <use xlink:href="#DejaVuSans-30"/>
      </g>
     </g>
    </g>
    <g id="xtick_2">
     <g id="line2d_2">
      <g>
       <use xlink:href="#m6d21d8f456" x="150.76175" y="390.04" style="stroke: #000000; stroke-width: 0.8"/>
      </g>
     </g>
     <g id="text_2">
      <!-- 25 -->
      <g transform="translate(144.39925 404.638438) scale(0.1 -0.1)">
       <defs>
        <path id="DejaVuSans-32" d="M 1228 531 
L 3431 531 
L 3431 0 
L 469 0 
L 469 531 
Q 828 903 1448 1529 
Q 2069 2156 2228 2338 
Q 2531 2678 2651 2914 
Q 2772 3150 2772 3378 
Q 2772 3750 2511 3984 
Q 2250 4219 1831 4219 
Q 1534 4219 1204 4116 
Q 875 4013 500 3803 
L 500 4441 
Q 881 4594 1212 4672 
Q 1544 4750 1819 4750 
Q 2544 4750 2975 4387 
Q 3406 4025 3406 3419 
Q 3406 3131 3298 2873 
Q 3191 2616 2906 2266 
Q 2828 2175 2409 1742 
Q 1991 1309 1228 531 
z
" transform="scale(0.015625)"/>
        <path id="DejaVuSans-35" d="M 691 4666 
L 3169 4666 
L 3169 4134 
L 1269 4134 
L 1269 2991 
Q 1406 3038 1543 3061 
Q 1681 3084 1819 3084 
Q 2600 3084 3056 2656 
Q 3513 2228 3513 1497 
Q 3513 744 3044 326 
Q 2575 -91 1722 -91 
Q 1428 -91 1123 -41 
Q 819 9 494 109 
L 494 744 
Q 775 591 1075 516 
Q 1375 441 1709 441 
Q 2250 441 2565 725 
Q 2881 1009 2881 1497 
Q 2881 1984 2565 2268 
Q 2250 2553 1709 2553 
Q 1456 2553 1204 2497 
Q 953 2441 691 2322 
L 691 4666 
z
" transform="scale(0.015625)"/>
       </defs>
       <use xlink:href="#DejaVuSans-32"/>
       <use xlink:href="#DejaVuSans-35" transform="translate(63.623047 0)"/>
      </g>
     </g>
    </g>
    <g id="xtick_3">
     <g id="line2d_3">
      <g>
       <use xlink:href="#m6d21d8f456" x="226.657136" y="390.04" style="stroke: #000000; stroke-width: 0.8"/>
      </g>
     </g>
     <g id="text_3">
      <!-- 50 -->
      <g transform="translate(220.294636 404.638438) scale(0.1 -0.1)">
       <use xlink:href="#DejaVuSans-35"/>
       <use xlink:href="#DejaVuSans-30" transform="translate(63.623047 0)"/>
      </g>
     </g>
    </g>
    <g id="xtick_4">
     <g id="line2d_4">
      <g>
       <use xlink:href="#m6d21d8f456" x="302.552522" y="390.04" style="stroke: #000000; stroke-width: 0.8"/>
      </g>
     </g>
     <g id="text_4">
      <!-- 75 -->
      <g transform="translate(296.190022 404.638438) scale(0.1 -0.1)">
       <defs>
        <path id="DejaVuSans-37" d="M 525 4666 
L 3525 4666 
L 3525 4397 
L 1831 0 
L 1172 0 
L 2766 4134 
L 525 4134 
L 525 4666 
z
" transform="scale(0.015625)"/>
       </defs>
       <use xlink:href="#DejaVuSans-37"/>
       <use xlink:href="#DejaVuSans-35" transform="translate(63.623047 0)"/>
      </g>
     </g>
    </g>
    <g id="xtick_5">
     <g id="line2d_5">
      <g>
       <use xlink:href="#m6d21d8f456" x="378.447908" y="390.04" style="stroke: #000000; stroke-width: 0.8"/>
      </g>
     </g>
     <g id="text_5">
      <!-- 100 -->
      <g transform="translate(368.904158 404.638438) scale(0.1 -0.1)">
       <defs>
        <path id="DejaVuSans-31" d="M 794 531 
L 1825 531 
L 1825 4091 
L 703 3866 
L 703 4441 
L 1819 4666 
L 2450 4666 
L 2450 531 
L 3481 531 
L 3481 0 
L 794 0 
L 794 531 
z
" transform="scale(0.015625)"/>
       </defs>
       <use xlink:href="#DejaVuSans-31"/>
       <use xlink:href="#DejaVuSans-30" transform="translate(63.623047 0)"/>
       <use xlink:href="#DejaVuSans-30" transform="translate(127.246094 0)"/>
      </g>
     </g>
    </g>
    <g id="xtick_6">
     <g id="line2d_6">
      <g>
       <use xlink:href="#m6d21d8f456" x="454.343294" y="390.04" style="stroke: #000000; stroke-width: 0.8"/>
      </g>
     </g>
     <g id="text_6">
      <!-- 125 -->
      <g transform="translate(444.799544 404.638438) scale(0.1 -0.1)">
       <use xlink:href="#DejaVuSans-31"/>
       <use xlink:href="#DejaVuSans-32" transform="translate(63.623047 0)"/>
       <use xlink:href="#DejaVuSans-35" transform="translate(127.246094 0)"/>
      </g>
     </g>
    </g>
    <g id="xtick_7">
     <g id="line2d_7">
      <g>
       <use xlink:href="#m6d21d8f456" x="530.23868" y="390.04" style="stroke: #000000; stroke-width: 0.8"/>
      </g>
     </g>
     <g id="text_7">
      <!-- 150 -->
      <g transform="translate(520.69493 404.638438) scale(0.1 -0.1)">
       <use xlink:href="#DejaVuSans-31"/>
       <use xlink:href="#DejaVuSans-35" transform="translate(63.623047 0)"/>
       <use xlink:href="#DejaVuSans-30" transform="translate(127.246094 0)"/>
      </g>
     </g>
    </g>
    <g id="xtick_8">
     <g id="line2d_8">
      <g>
       <use xlink:href="#m6d21d8f456" x="606.134066" y="390.04" style="stroke: #000000; stroke-width: 0.8"/>
      </g>
     </g>
     <g id="text_8">
      <!-- 175 -->
      <g transform="translate(596.590316 404.638438) scale(0.1 -0.1)">
       <use xlink:href="#DejaVuSans-31"/>
       <use xlink:href="#DejaVuSans-37" transform="translate(63.623047 0)"/>
       <use xlink:href="#DejaVuSans-35" transform="translate(127.246094 0)"/>
      </g>
     </g>
    </g>
    <g id="xtick_9">
     <g id="line2d_9">
      <g>
       <use xlink:href="#m6d21d8f456" x="682.029452" y="390.04" style="stroke: #000000; stroke-width: 0.8"/>
      </g>
     </g>
     <g id="text_9">
      <!-- 200 -->
      <g transform="translate(672.485702 404.638438) scale(0.1 -0.1)">
       <use xlink:href="#DejaVuSans-32"/>
       <use xlink:href="#DejaVuSans-30" transform="translate(63.623047 0)"/>
       <use xlink:href="#DejaVuSans-30" transform="translate(127.246094 0)"/>
      </g>
     </g>
    </g>
    <g id="text_10">
     <!-- generation -->
     <g transform="translate(349.737031 418.316562) scale(0.1 -0.1)">
      <defs>
       <path id="DejaVuSans-67" d="M 2906 1791 
Q 2906 2416 2648 2759 
Q 2391 3103 1925 3103 
Q 1463 3103 1205 2759 
Q 947 2416 947 1791 
Q 947 1169 1205 825 
Q 1463 481 1925 481 
Q 2391 481 2648 825 
Q 2906 1169 2906 1791 
z
M 3481 434 
Q 3481 -459 3084 -895 
Q 2688 -1331 1869 -1331 
Q 1566 -1331 1297 -1286 
Q 1028 -1241 775 -1147 
L 775 -588 
Q 1028 -725 1275 -790 
Q 1522 -856 1778 -856 
Q 2344 -856 2625 -561 
Q 2906 -266 2906 331 
L 2906 616 
Q 2728 306 2450 153 
Q 2172 0 1784 0 
Q 1141 0 747 490 
Q 353 981 353 1791 
Q 353 2603 747 3093 
Q 1141 3584 1784 3584 
Q 2172 3584 2450 3431 
Q 2728 3278 2906 2969 
L 2906 3500 
L 3481 3500 
L 3481 434 
z
" transform="scale(0.015625)"/>
       <path id="DejaVuSans-65" d="M 3597 1894 
L 3597 1613 
L 953 1613 
Q 991 1019 1311 708 
Q 1631 397 2203 397 
Q 2534 397 2845 478 
Q 3156 559 3463 722 
L 3463 178 
Q 3153 47 2828 -22 
Q 2503 -91 2169 -91 
Q 1331 -91 842 396 
Q 353 884 353 1716 
Q 353 2575 817 3079 
Q 1281 3584 2069 3584 
Q 2775 3584 3186 3129 
Q 3597 2675 3597 1894 
z
M 3022 2063 
Q 3016 2534 2758 2815 
Q 2500 3097 2075 3097 
Q 1594 3097 1305 2825 
Q 1016 2553 972 2059 
L 3022 2063 
z
" transform="scale(0.015625)"/>
       <path id="DejaVuSans-6e" d="M 3513 2113 
L 3513 0 
L 2938 0 
L 2938 2094 
Q 2938 2591 2744 2837 
Q 2550 3084 2163 3084 
Q 1697 3084 1428 2787 
Q 1159 2491 1159 1978 
L 1159 0 
L 581 0 
L 581 3500 
L 1159 3500 
L 1159 2956 
Q 1366 3272 1645 3428 
Q 1925 3584 2291 3584 
Q 2894 3584 3203 3211 
Q 3513 2838 3513 2113 
z
" transform="scale(0.015625)"/>
       <path id="DejaVuSans-72" d="M 2631 2963 
Q 2534 3019 2420 3045 
Q 2306 3072 2169 3072 
Q 1681 3072 1420 2755 
Q 1159 2438 1159 1844 
L 1159 0 
L 581 0 
L 581 3500 
L 1159 3500 
L 1159 2956 
Q 1341 3275 1631 3429 
Q 1922 3584 2338 3584 
Q 2397 3584 2469 3576 
Q 2541 3569 2628 3553 
L 2631 2963 
z
" transform="scale(0.015625)"/>
       <path id="DejaVuSans-61" d="M 2194 1759 
Q 1497 1759 1228 1600 
Q 959 1441 959 1056 
Q 959 750 1161 570 
Q 1363 391 1709 391 
Q 2188 391 2477 730 
Q 2766 1069 2766 1631 
L 2766 1759 
L 2194 1759 
z
M 3341 1997 
L 3341 0 
L 2766 0 
L 2766 531 
Q 2569 213 2275 61 
Q 1981 -91 1556 -91 
Q 1019 -91 701 211 
Q 384 513 384 1019 
Q 384 1609 779 1909 
Q 1175 2209 1959 2209 
L 2766 2209 
L 2766 2266 
Q 2766 2663 2505 2880 
Q 2244 3097 1772 3097 
Q 1472 3097 1187 3025 
Q 903 2953 641 2809 
L 641 3341 
Q 956 3463 1253 3523 
Q 1550 3584 1831 3584 
Q 2591 3584 2966 3190 
Q 3341 2797 3341 1997 
z
" transform="scale(0.015625)"/>
       <path id="DejaVuSans-74" d="M 1172 4494 
L 1172 3500 
L 2356 3500 
L 2356 3053 
L 1172 3053 
L 1172 1153 
Q 1172 725 1289 603 
Q 1406 481 1766 481 
L 2356 481 
L 2356 0 
L 1766 0 
Q 1100 0 847 248 
Q 594 497 594 1153 
L 594 3053 
L 172 3053 
L 172 3500 
L 594 3500 
L 594 4494 
L 1172 4494 
z
" transform="scale(0.015625)"/>
       <path id="DejaVuSans-69" d="M 603 3500 
L 1178 3500 
L 1178 0 
L 603 0 
L 603 3500 
z
M 603 4863 
L 1178 4863 
L 1178 4134 
L 603 4134 
L 603 4863 
z
" transform="scale(0.015625)"/>
       <path id="DejaVuSans-6f" d="M 1959 3097 
Q 1497 3097 1228 2736 
Q 959 2375 959 1747 
Q 959 1119 1226 758 
Q 1494 397 1959 397 
Q 2419 397 2687 759 
Q 2956 1122 2956 1747 
Q 2956 2369 2687 2733 
Q 2419 3097 1959 3097 
z
M 1959 3584 
Q 2709 3584 3137 3096 
Q 3566 2609 3566 1747 
Q 3566 888 3137 398 
Q 2709 -91 1959 -91 
Q 1206 -91 779 398 
Q 353 888 353 1747 
Q 353 2609 779 3096 
Q 1206 3584 1959 3584 
z
" transform="scale(0.015625)"/>
      </defs>
      <use xlink:href="#DejaVuSans-67"/>
      <use xlink:href="#DejaVuSans-65" transform="translate(63.476562 0)"/>
      <use xlink:href="#DejaVuSans-6e" transform="translate(125 0)"/>
      <use xlink:href="#DejaVuSans-65" transform="translate(188.378906 0)"/>
      <use xlink:href="#DejaVuSans-72" transform="translate(249.902344 0)"/>
      <use xlink:href="#DejaVuSans-61" transform="translate(291.015625 0)"/>
      <use xlink:href="#DejaVuSans-74" transform="translate(352.294922 0)"/>
      <use xlink:href="#DejaVuSans-69" transform="translate(391.503906 0)"/>
      <use xlink:href="#DejaVuSans-6f" transform="translate(419.287109 0)"/>
      <use xlink:href="#DejaVuSans-6e" transform="translate(480.46875 0)"/>
     </g>
    </g>
   </g>
   <g id="matplotlib.axis_2">
    <g id="ytick_1">
     <g id="line2d_10">
      <defs>
       <path id="ma609ff745a" d="M 0 0 
L -3.5 0 
" style="stroke: #000000; stroke-width: 0.8"/>
      </defs>
      <g>
       <use xlink:href="#ma609ff745a" x="44.66" y="350.757644" style="stroke: #000000; stroke-width: 0.8"/>
      </g>
     </g>
     <g id="text_11">
      <!-- 4 -->
      <g transform="translate(31.2975 354.556863) scale(0.1 -0.1)">
       <defs>
        <path id="DejaVuSans-34" d="M 2419 4116 
L 825 1625 
L 2419 1625 
L 2419 4116 
z
M 2253 4666 
L 3047 4666 
L 3047 1625 
L 3713 1625 
L 3713 1100 
L 3047 1100 
L 3047 0 
L 2419 0 
L 2419 1100 
L 313 1100 
L 313 1709 
L 2253 4666 
z
" transform="scale(0.015625)"/>
       </defs>
       <use xlink:href="#DejaVuSans-34"/>
      </g>
     </g>
    </g>
    <g id="ytick_2">
     <g id="line2d_11">
      <g>
       <use xlink:href="#ma609ff745a" x="44.66" y="308.877652" style="stroke: #000000; stroke-width: 0.8"/>
      </g>
     </g>
     <g id="text_12">
      <!-- 5 -->
      <g transform="translate(31.2975 312.676871) scale(0.1 -0.1)">
       <use xlink:href="#DejaVuSans-35"/>
      </g>
     </g>
    </g>
    <g id="ytick_3">
     <g id="line2d_12">
      <g>
       <use xlink:href="#ma609ff745a" x="44.66" y="266.997661" style="stroke: #000000; stroke-width: 0.8"/>
      </g>
     </g>
     <g id="text_13">
      <!-- 6 -->
      <g transform="translate(31.2975 270.79688) scale(0.1 -0.1)">
       <defs>
        <path id="DejaVuSans-36" d="M 2113 2584 
Q 1688 2584 1439 2293 
Q 1191 2003 1191 1497 
Q 1191 994 1439 701 
Q 1688 409 2113 409 
Q 2538 409 2786 701 
Q 3034 994 3034 1497 
Q 3034 2003 2786 2293 
Q 2538 2584 2113 2584 
z
M 3366 4563 
L 3366 3988 
Q 3128 4100 2886 4159 
Q 2644 4219 2406 4219 
Q 1781 4219 1451 3797 
Q 1122 3375 1075 2522 
Q 1259 2794 1537 2939 
Q 1816 3084 2150 3084 
Q 2853 3084 3261 2657 
Q 3669 2231 3669 1497 
Q 3669 778 3244 343 
Q 2819 -91 2113 -91 
Q 1303 -91 875 529 
Q 447 1150 447 2328 
Q 447 3434 972 4092 
Q 1497 4750 2381 4750 
Q 2619 4750 2861 4703 
Q 3103 4656 3366 4563 
z
" transform="scale(0.015625)"/>
       </defs>
       <use xlink:href="#DejaVuSans-36"/>
      </g>
     </g>
    </g>
    <g id="ytick_4">
     <g id="line2d_13">
      <g>
       <use xlink:href="#ma609ff745a" x="44.66" y="225.117669" style="stroke: #000000; stroke-width: 0.8"/>
      </g>
     </g>
     <g id="text_14">
      <!-- 7 -->
      <g transform="translate(31.2975 228.916888) scale(0.1 -0.1)">
       <use xlink:href="#DejaVuSans-37"/>
      </g>
     </g>
    </g>
    <g id="ytick_5">
     <g id="line2d_14">
      <g>
       <use xlink:href="#ma609ff745a" x="44.66" y="183.237678" style="stroke: #000000; stroke-width: 0.8"/>
      </g>
     </g>
     <g id="text_15">
      <!-- 8 -->
      <g transform="translate(31.2975 187.036897) scale(0.1 -0.1)">
       <defs>
        <path id="DejaVuSans-38" d="M 2034 2216 
Q 1584 2216 1326 1975 
Q 1069 1734 1069 1313 
Q 1069 891 1326 650 
Q 1584 409 2034 409 
Q 2484 409 2743 651 
Q 3003 894 3003 1313 
Q 3003 1734 2745 1975 
Q 2488 2216 2034 2216 
z
M 1403 2484 
Q 997 2584 770 2862 
Q 544 3141 544 3541 
Q 544 4100 942 4425 
Q 1341 4750 2034 4750 
Q 2731 4750 3128 4425 
Q 3525 4100 3525 3541 
Q 3525 3141 3298 2862 
Q 3072 2584 2669 2484 
Q 3125 2378 3379 2068 
Q 3634 1759 3634 1313 
Q 3634 634 3220 271 
Q 2806 -91 2034 -91 
Q 1263 -91 848 271 
Q 434 634 434 1313 
Q 434 1759 690 2068 
Q 947 2378 1403 2484 
z
M 1172 3481 
Q 1172 3119 1398 2916 
Q 1625 2713 2034 2713 
Q 2441 2713 2670 2916 
Q 2900 3119 2900 3481 
Q 2900 3844 2670 4047 
Q 2441 4250 2034 4250 
Q 1625 4250 1398 4047 
Q 1172 3844 1172 3481 
z
" transform="scale(0.015625)"/>
       </defs>
       <use xlink:href="#DejaVuSans-38"/>
      </g>
     </g>
    </g>
    <g id="ytick_6">
     <g id="line2d_15">
      <g>
       <use xlink:href="#ma609ff745a" x="44.66" y="141.357687" style="stroke: #000000; stroke-width: 0.8"/>
      </g>
     </g>
     <g id="text_16">
      <!-- 9 -->
      <g transform="translate(31.2975 145.156905) scale(0.1 -0.1)">
       <defs>
        <path id="DejaVuSans-39" d="M 703 97 
L 703 672 
Q 941 559 1184 500 
Q 1428 441 1663 441 
Q 2288 441 2617 861 
Q 2947 1281 2994 2138 
Q 2813 1869 2534 1725 
Q 2256 1581 1919 1581 
Q 1219 1581 811 2004 
Q 403 2428 403 3163 
Q 403 3881 828 4315 
Q 1253 4750 1959 4750 
Q 2769 4750 3195 4129 
Q 3622 3509 3622 2328 
Q 3622 1225 3098 567 
Q 2575 -91 1691 -91 
Q 1453 -91 1209 -44 
Q 966 3 703 97 
z
M 1959 2075 
Q 2384 2075 2632 2365 
Q 2881 2656 2881 3163 
Q 2881 3666 2632 3958 
Q 2384 4250 1959 4250 
Q 1534 4250 1286 3958 
Q 1038 3666 1038 3163 
Q 1038 2656 1286 2365 
Q 1534 2075 1959 2075 
z
" transform="scale(0.015625)"/>
       </defs>
       <use xlink:href="#DejaVuSans-39"/>
      </g>
     </g>
    </g>
    <g id="ytick_7">
     <g id="line2d_16">
      <g>
       <use xlink:href="#ma609ff745a" x="44.66" y="99.477695" style="stroke: #000000; stroke-width: 0.8"/>
      </g>
     </g>
     <g id="text_17">
      <!-- 10 -->
      <g transform="translate(24.935 103.276914) scale(0.1 -0.1)">
       <use xlink:href="#DejaVuSans-31"/>
       <use xlink:href="#DejaVuSans-30" transform="translate(63.623047 0)"/>
      </g>
     </g>
    </g>
    <g id="ytick_8">
     <g id="line2d_17">
      <g>
       <use xlink:href="#ma609ff745a" x="44.66" y="57.597704" style="stroke: #000000; stroke-width: 0.8"/>
      </g>
     </g>
     <g id="text_18">
      <!-- 11 -->
      <g transform="translate(24.935 61.396922) scale(0.1 -0.1)">
       <use xlink:href="#DejaVuSans-31"/>
       <use xlink:href="#DejaVuSans-31" transform="translate(63.623047 0)"/>
      </g>
     </g>
    </g>
    <g id="text_19">
     <!-- fitness -->
     <g transform="translate(18.855313 225.024062) rotate(-90) scale(0.1 -0.1)">
      <defs>
       <path id="DejaVuSans-66" d="M 2375 4863 
L 2375 4384 
L 1825 4384 
Q 1516 4384 1395 4259 
Q 1275 4134 1275 3809 
L 1275 3500 
L 2222 3500 
L 2222 3053 
L 1275 3053 
L 1275 0 
L 697 0 
L 697 3053 
L 147 3053 
L 147 3500 
L 697 3500 
L 697 3744 
Q 697 4328 969 4595 
Q 1241 4863 1831 4863 
L 2375 4863 
z
" transform="scale(0.015625)"/>
       <path id="DejaVuSans-73" d="M 2834 3397 
L 2834 2853 
Q 2591 2978 2328 3040 
Q 2066 3103 1784 3103 
Q 1356 3103 1142 2972 
Q 928 2841 928 2578 
Q 928 2378 1081 2264 
Q 1234 2150 1697 2047 
L 1894 2003 
Q 2506 1872 2764 1633 
Q 3022 1394 3022 966 
Q 3022 478 2636 193 
Q 2250 -91 1575 -91 
Q 1294 -91 989 -36 
Q 684 19 347 128 
L 347 722 
Q 666 556 975 473 
Q 1284 391 1588 391 
Q 1994 391 2212 530 
Q 2431 669 2431 922 
Q 2431 1156 2273 1281 
Q 2116 1406 1581 1522 
L 1381 1569 
Q 847 1681 609 1914 
Q 372 2147 372 2553 
Q 372 3047 722 3315 
Q 1072 3584 1716 3584 
Q 2034 3584 2315 3537 
Q 2597 3491 2834 3397 
z
" transform="scale(0.015625)"/>
      </defs>
      <use xlink:href="#DejaVuSans-66"/>
      <use xlink:href="#DejaVuSans-69" transform="translate(35.205078 0)"/>
      <use xlink:href="#DejaVuSans-74" transform="translate(62.988281 0)"/>
      <use xlink:href="#DejaVuSans-6e" transform="translate(102.197266 0)"/>
      <use xlink:href="#DejaVuSans-65" transform="translate(165.576172 0)"/>
      <use xlink:href="#DejaVuSans-73" transform="translate(227.099609 0)"/>
      <use xlink:href="#DejaVuSans-73" transform="translate(279.199219 0)"/>
     </g>
    </g>
   </g>
   <g id="line2d_18">
    <path d="M 74.866364 312.975288 
L 83.97381 312.975288 
L 87.009625 321.015353 
L 90.045441 359.265975 
L 196.298981 359.265975 
L 199.334797 372.685499 
L 678.993636 372.685499 
L 678.993636 372.685499 
" clip-path="url(#pffe03b5269)" style="fill: none; stroke: #1f77b4; stroke-width: 1.5; stroke-linecap: square"/>
   </g>
   <g id="line2d_19">
    <path d="M 74.866364 223.696816 
L 77.902179 222.76757 
L 80.937995 231.424058 
L 83.97381 223.735504 
L 87.009625 234.274165 
L 90.045441 224.107423 
L 93.081256 228.945221 
L 96.117072 230.94504 
L 99.152887 224.548908 
L 102.188703 234.840607 
L 105.224518 234.357214 
L 108.260333 240.08381 
L 111.296149 230.618738 
L 114.331964 241.11029 
L 117.36778 233.700889 
L 120.403595 233.0579 
L 123.439411 233.646743 
L 126.475226 227.065664 
L 129.511042 226.809426 
L 132.546857 236.000053 
L 135.582672 241.963766 
L 138.618488 241.041582 
L 141.654303 238.496533 
L 144.690119 229.599647 
L 147.725934 241.213898 
L 150.76175 237.519369 
L 153.797565 238.36373 
L 156.833381 237.35401 
L 159.869196 229.715833 
L 162.905011 244.585933 
L 165.940827 244.837573 
L 168.976642 231.163612 
L 172.012458 240.40338 
L 175.048273 233.390733 
L 178.084089 227.650606 
L 181.119904 239.670726 
L 184.15572 231.6971 
L 187.191535 238.323283 
L 190.22735 241.605577 
L 193.263166 241.756634 
L 196.298981 233.026801 
L 199.334797 241.844948 
L 202.370612 235.435374 
L 205.406428 232.568088 
L 208.442243 234.435261 
L 211.478058 235.911279 
L 214.513874 227.768761 
L 217.549689 232.826948 
L 220.585505 239.382395 
L 223.62132 238.4205 
L 226.657136 234.525384 
L 229.692951 243.386714 
L 232.728767 240.740181 
L 235.764582 234.84937 
L 238.800397 245.98133 
L 241.836213 241.17836 
L 244.872028 239.575347 
L 247.907844 239.690144 
L 250.943659 235.739609 
L 253.979475 236.011972 
L 257.01529 247.651963 
L 260.051106 234.936907 
L 263.086921 243.065091 
L 266.122736 241.210424 
L 269.158552 238.842239 
L 272.194367 229.960829 
L 275.230183 241.503012 
L 278.265998 244.516923 
L 281.301814 226.714364 
L 284.337629 235.199543 
L 287.373444 235.640364 
L 290.40926 245.39656 
L 293.445075 237.299172 
L 296.480891 235.656133 
L 299.516706 233.829093 
L 302.552522 242.671757 
L 305.588337 238.449724 
L 308.624153 232.560868 
L 311.659968 242.855502 
L 314.695783 237.586566 
L 317.731599 235.971819 
L 320.767414 236.07726 
L 323.80323 229.874811 
L 326.839045 236.520724 
L 329.874861 245.376842 
L 332.910676 244.610356 
L 335.946492 239.200191 
L 338.982307 242.499205 
L 342.018122 239.673743 
L 345.053938 236.42861 
L 348.089753 245.057894 
L 351.125569 252.011432 
L 354.161384 239.402828 
L 357.1972 240.689815 
L 360.233015 247.703807 
L 363.268831 236.031987 
L 366.304646 243.617991 
L 369.340461 228.276409 
L 372.376277 242.891323 
L 375.412092 236.356098 
L 378.447908 228.520412 
L 381.483723 227.923824 
L 384.519539 242.836331 
L 387.555354 239.895246 
L 390.591169 237.499782 
L 393.626985 242.173544 
L 396.6628 235.104772 
L 399.698616 232.12855 
L 402.734431 235.589274 
L 405.770247 240.195182 
L 408.806062 236.583209 
L 411.841878 243.140837 
L 414.877693 240.42977 
L 417.913508 238.937553 
L 420.949324 233.322484 
L 423.985139 239.72694 
L 427.020955 233.103154 
L 430.05677 248.694116 
L 433.092586 234.575493 
L 436.128401 242.280444 
L 439.164217 244.240836 
L 442.200032 243.638998 
L 445.235847 240.655074 
L 448.271663 243.661413 
L 451.307478 238.535587 
L 454.343294 237.317564 
L 457.379109 232.467073 
L 460.414925 243.284709 
L 463.45074 238.089606 
L 466.486556 246.766059 
L 469.522371 231.527671 
L 472.558186 240.883391 
L 475.594002 243.338707 
L 478.629817 236.916462 
L 481.665633 240.309437 
L 484.701448 233.04381 
L 487.737264 237.53824 
L 490.773079 236.624749 
L 493.808894 230.7253 
L 496.84471 243.914883 
L 499.880525 236.394259 
L 502.916341 227.134986 
L 505.952156 241.414666 
L 508.987972 233.342112 
L 512.023787 245.522858 
L 515.059603 239.293835 
L 518.095418 247.458679 
L 521.131233 236.091904 
L 524.167049 235.1072 
L 527.202864 235.518981 
L 530.23868 230.010966 
L 533.274495 236.251829 
L 536.310311 238.910349 
L 539.346126 242.219812 
L 542.381942 230.477622 
L 545.417757 240.076565 
L 548.453572 234.807341 
L 551.489388 240.189385 
L 554.525203 239.709212 
L 557.561019 240.242474 
L 560.596834 241.0712 
L 563.63265 236.265921 
L 566.668465 241.469404 
L 569.70428 235.523988 
L 572.740096 233.880174 
L 575.775911 233.28425 
L 578.811727 236.613751 
L 581.847542 237.741351 
L 584.883358 232.957308 
L 587.919173 237.304375 
L 590.954989 230.827703 
L 593.990804 238.964192 
L 597.026619 234.65808 
L 600.062435 244.956923 
L 603.09825 232.419551 
L 606.134066 236.011408 
L 609.169881 242.46018 
L 612.205697 234.319377 
L 615.241512 239.366893 
L 618.277328 238.123405 
L 621.313143 244.620451 
L 624.348958 243.40074 
L 627.384774 249.693838 
L 630.420589 241.866281 
L 633.456405 239.866299 
L 636.49222 237.594429 
L 639.528036 241.473799 
L 642.563851 232.570913 
L 645.599667 230.993309 
L 648.635482 241.387894 
L 651.671297 235.511915 
L 654.707113 231.747588 
L 657.742928 234.734437 
L 660.778744 240.740935 
L 663.814559 236.871502 
L 666.850375 238.580513 
L 669.88619 240.655119 
L 672.922005 245.963629 
L 675.957821 234.904848 
L 678.993636 238.99082 
L 678.993636 238.99082 
" clip-path="url(#pffe03b5269)" style="fill: none; stroke-dasharray: 5.55,2.4; stroke-dashoffset: 0; stroke: #ff7f0e; stroke-opacity: 0.6; stroke-width: 1.5"/>
   </g>
   <g id="line2d_20">
    <path d="M 74.866364 320.463763 
L 77.902179 320.463763 
L 80.937995 323.588122 
L 83.97381 324.736913 
L 96.117072 324.736913 
L 99.152887 356.399651 
L 102.188703 356.399651 
L 105.224518 360.436781 
L 111.296149 360.436781 
L 114.331964 373.532727 
L 678.993636 373.532727 
L 678.993636 373.532727 
" clip-path="url(#pffe03b5269)" style="fill: none; stroke: #2ca02c; stroke-width: 1.5; stroke-linecap: square"/>
   </g>
   <g id="line2d_21">
    <path d="M 74.866364 230.213968 
L 77.902179 226.96121 
L 80.937995 227.872387 
L 83.97381 227.758029 
L 87.009625 229.825303 
L 90.045441 227.343326 
L 93.081256 235.579889 
L 96.117072 227.14066 
L 99.152887 227.687076 
L 102.188703 233.011863 
L 105.224518 230.682315 
L 108.260333 231.615377 
L 111.296149 230.869654 
L 114.331964 234.006268 
L 117.36778 225.350332 
L 120.403595 228.674304 
L 123.439411 226.945191 
L 126.475226 223.907894 
L 129.511042 232.039724 
L 132.546857 235.574725 
L 135.582672 224.26208 
L 138.618488 229.496966 
L 141.654303 227.74336 
L 144.690119 238.446202 
L 147.725934 231.595875 
L 150.76175 232.455436 
L 153.797565 238.071155 
L 156.833381 234.689079 
L 159.869196 234.566301 
L 162.905011 226.249319 
L 165.940827 231.092114 
L 168.976642 232.434425 
L 172.012458 229.477855 
L 175.048273 236.558745 
L 178.084089 235.095374 
L 181.119904 229.504344 
L 184.15572 231.063188 
L 187.191535 243.245807 
L 190.22735 225.106184 
L 193.263166 227.541308 
L 196.298981 236.641385 
L 199.334797 238.415443 
L 202.370612 240.025374 
L 205.406428 235.887077 
L 208.442243 240.946745 
L 211.478058 222.27861 
L 214.513874 231.531725 
L 217.549689 234.651392 
L 220.585505 232.004391 
L 223.62132 236.814781 
L 226.657136 231.220287 
L 229.692951 235.523957 
L 232.728767 237.961319 
L 235.764582 227.640928 
L 238.800397 226.1011 
L 241.836213 236.430609 
L 244.872028 231.307276 
L 247.907844 235.785709 
L 250.943659 232.188614 
L 253.979475 240.432954 
L 257.01529 240.88786 
L 260.051106 234.760614 
L 263.086921 230.534585 
L 266.122736 237.561497 
L 269.158552 224.811416 
L 272.194367 226.803849 
L 275.230183 236.631302 
L 281.301814 232.771521 
L 284.337629 237.440237 
L 287.373444 231.347921 
L 290.40926 240.547915 
L 293.445075 237.670893 
L 296.480891 238.184635 
L 299.516706 230.22155 
L 302.552522 232.584443 
L 305.588337 234.574755 
L 308.624153 240.838656 
L 311.659968 231.281151 
L 314.695783 228.552899 
L 317.731599 242.419181 
L 320.767414 241.459533 
L 323.80323 234.505123 
L 326.839045 240.073645 
L 329.874861 234.569654 
L 332.910676 238.108472 
L 335.946492 241.200598 
L 338.982307 242.375923 
L 342.018122 231.111181 
L 345.053938 235.745776 
L 348.089753 233.592122 
L 351.125569 246.120804 
L 354.161384 233.168192 
L 357.1972 238.082922 
L 360.233015 230.769941 
L 363.268831 237.448138 
L 366.304646 226.27716 
L 369.340461 249.039112 
L 372.376277 240.078005 
L 375.412092 232.416011 
L 378.447908 239.795114 
L 381.483723 241.686168 
L 384.519539 242.395648 
L 387.555354 240.981929 
L 390.591169 238.564343 
L 393.626985 237.111562 
L 396.6628 236.683577 
L 399.698616 247.23608 
L 402.734431 229.714528 
L 405.770247 242.229774 
L 408.806062 248.874267 
L 411.841878 237.338616 
L 414.877693 241.407085 
L 417.913508 234.74661 
L 420.949324 238.554768 
L 423.985139 230.909983 
L 427.020955 241.83215 
L 430.05677 234.783777 
L 433.092586 231.273141 
L 436.128401 233.511065 
L 439.164217 241.560406 
L 442.200032 228.413948 
L 445.235847 228.485975 
L 448.271663 229.82324 
L 451.307478 245.749605 
L 454.343294 236.119874 
L 457.379109 224.973184 
L 460.414925 224.506434 
L 463.45074 235.228889 
L 466.486556 232.268287 
L 469.522371 236.932006 
L 472.558186 235.459648 
L 475.594002 232.358885 
L 478.629817 237.167656 
L 481.665633 228.690943 
L 484.701448 229.149507 
L 487.737264 234.351797 
L 490.773079 226.752748 
L 493.808894 232.483034 
L 496.84471 241.063728 
L 499.880525 235.298185 
L 502.916341 236.110646 
L 505.952156 240.239942 
L 508.987972 234.769459 
L 512.023787 231.480938 
L 515.059603 227.782252 
L 518.095418 239.999866 
L 521.131233 231.441309 
L 524.167049 236.317545 
L 527.202864 231.626052 
L 530.23868 235.014648 
L 533.274495 237.788039 
L 536.310311 230.604544 
L 539.346126 243.424464 
L 542.381942 241.264012 
L 545.417757 233.531304 
L 548.453572 239.161909 
L 551.489388 225.884842 
L 554.525203 228.85208 
L 557.561019 242.8038 
L 560.596834 229.205225 
L 563.63265 241.704255 
L 566.668465 228.804116 
L 569.70428 235.726385 
L 572.740096 236.785905 
L 575.775911 235.493625 
L 578.811727 236.21138 
L 581.847542 233.788641 
L 584.883358 232.12424 
L 587.919173 224.916659 
L 590.954989 231.848072 
L 593.990804 241.375388 
L 597.026619 232.931482 
L 600.062435 231.897602 
L 603.09825 234.999044 
L 606.134066 235.863982 
L 609.169881 229.812826 
L 612.205697 234.11455 
L 615.241512 236.728651 
L 618.277328 233.449609 
L 621.313143 229.106793 
L 624.348958 235.986041 
L 627.384774 233.791319 
L 630.420589 234.15332 
L 633.456405 243.414326 
L 636.49222 239.47595 
L 639.528036 228.691983 
L 642.563851 235.307241 
L 645.599667 235.405422 
L 648.635482 231.474915 
L 651.671297 241.717008 
L 654.707113 233.818934 
L 657.742928 239.658793 
L 660.778744 231.596252 
L 663.814559 241.423293 
L 666.850375 240.814859 
L 669.88619 236.718384 
L 672.922005 234.838917 
L 675.957821 244.163324 
L 678.993636 240.726324 
L 678.993636 240.726324 
" clip-path="url(#pffe03b5269)" style="fill: none; stroke-dasharray: 5.55,2.4; stroke-dashoffset: 0; stroke: #d62728; stroke-opacity: 0.6; stroke-width: 1.5"/>
   </g>
   <g id="line2d_22">
    <path d="M 74.866364 236.416197 
L 77.902179 236.416197 
L 80.937995 236.416197 
L 83.97381 236.416197 
L 87.009625 245.186144 
L 90.045441 255.006407 
L 93.081256 255.006407 
L 96.117072 255.33692 
L 99.152887 255.33692 
L 102.188703 265.786739 
L 105.224518 265.786739 
L 108.260333 265.786739 
L 111.296149 287.140051 
L 114.331964 287.140051 
L 117.36778 287.140051 
L 120.403595 287.140051 
L 123.439411 287.140051 
L 126.475226 287.140051 
L 129.511042 287.140051 
L 132.546857 287.140051 
" clip-path="url(#pffe03b5269)" style="fill: none; stroke: #9467bd; stroke-width: 1.5; stroke-linecap: square"/>
   </g>
   <g id="line2d_23">
    <path d="M 74.866364 69.647028 
L 77.902179 51.589807 
L 80.937995 56.719917 
L 83.97381 52.914675 
L 87.009625 61.977961 
L 90.045441 43.387273 
L 93.081256 64.320318 
L 96.117072 96.223718 
L 99.152887 53.833335 
L 102.188703 73.289483 
L 105.224518 69.642132 
L 108.260333 67.096703 
L 111.296149 78.672696 
L 114.331964 64.676426 
L 117.36778 82.182421 
L 120.403595 80.96414 
L 123.439411 94.209627 
L 126.475226 85.008832 
L 129.511042 57.071571 
L 132.546857 57.825311 
" clip-path="url(#pffe03b5269)" style="fill: none; stroke-dasharray: 5.55,2.4; stroke-dashoffset: 0; stroke: #8c564b; stroke-opacity: 0.6; stroke-width: 1.5"/>
   </g>
   <g id="patch_3">
    <path d="M 44.66 390.04 
L 44.66 26.88 
" style="fill: none; stroke: #000000; stroke-width: 0.8; stroke-linejoin: miter; stroke-linecap: square"/>
   </g>
   <g id="patch_4">
    <path d="M 709.2 390.04 
L 709.2 26.88 
" style="fill: none; stroke: #000000; stroke-width: 0.8; stroke-linejoin: miter; stroke-linecap: square"/>
   </g>
   <g id="patch_5">
    <path d="M 44.66 390.04 
L 709.2 390.04 
" style="fill: none; stroke: #000000; stroke-width: 0.8; stroke-linejoin: miter; stroke-linecap: square"/>
   </g>
   <g id="patch_6">
    <path d="M 44.66 26.88 
L 709.2 26.88 
" style="fill: none; stroke: #000000; stroke-width: 0.8; stroke-linejoin: miter; stroke-linecap: square"/>
   </g>
   <g id="text_20">
    <!-- Convergence comparison across runs -->
    <g transform="translate(264.18625 20.88) scale(0.12 -0.12)">
     <defs>
      <path id="DejaVuSans-43" d="M 4122 4306 
L 4122 3641 
Q 3803 3938 3442 4084 
Q 3081 4231 2675 4231 
Q 1875 4231 1450 3742 
Q 1025 3253 1025 2328 
Q 1025 1406 1450 917 
Q 1875 428 2675 428 
Q 3081 428 3442 575 
Q 3803 722 4122 1019 
L 4122 359 
Q 3791 134 3420 21 
Q 3050 -91 2638 -91 
Q 1578 -91 968 557 
Q 359 1206 359 2328 
Q 359 3453 968 4101 
Q 1578 4750 2638 4750 
Q 3056 4750 3426 4639 
Q 3797 4528 4122 4306 
z
" transform="scale(0.015625)"/>
      <path id="DejaVuSans-76" d="M 191 3500 
L 800 3500 
L 1894 563 
L 2988 3500 
L 3597 3500 
L 2284 0 
L 1503 0 
L 191 3500 
z
" transform="scale(0.015625)"/>
      <path id="DejaVuSans-63" d="M 3122 3366 
L 3122 2828 
Q 2878 2963 2633 3030 
Q 2388 3097 2138 3097 
Q 1578 3097 1268 2742 
Q 959 2388 959 1747 
Q 959 1106 1268 751 
Q 1578 397 2138 397 
Q 2388 397 2633 464 
Q 2878 531 3122 666 
L 3122 134 
Q 2881 22 2623 -34 
Q 2366 -91 2075 -91 
Q 1284 -91 818 406 
Q 353 903 353 1747 
Q 353 2603 823 3093 
Q 1294 3584 2113 3584 
Q 2378 3584 2631 3529 
Q 2884 3475 3122 3366 
z
" transform="scale(0.015625)"/>
      <path id="DejaVuSans-20" transform="scale(0.015625)"/>
      <path id="DejaVuSans-6d" d="M 3328 2828 
Q 3544 3216 3844 3400 
Q 4144 3584 4550 3584 
Q 5097 3584 5394 3201 
Q 5691 2819 5691 2113 
L 5691 0 
L 5113 0 
L 5113 2094 
Q 5113 2597 4934 2840 
Q 4756 3084 4391 3084 
Q 3944 3084 3684 2787 
Q 3425 2491 3425 1978 
L 3425 0 
L 2847 0 
L 2847 2094 
Q 2847 2600 2669 2842 
Q 2491 3084 2119 3084 
Q 1678 3084 1418 2786 
Q 1159 2488 1159 1978 
L 1159 0 
L 581 0 
L 581 3500 
L 1159 3500 
L 1159 2956 
Q 1356 3278 1631 3431 
Q 1906 3584 2284 3584 
Q 2666 3584 2933 3390 
Q 3200 3197 3328 2828 
z
" transform="scale(0.015625)"/>
      <path id="DejaVuSans-70" d="M 1159 525 
L 1159 -1331 
L 581 -1331 
L 581 3500 
L 1159 3500 
L 1159 2969 
Q 1341 3281 1617 3432 
Q 1894 3584 2278 3584 
Q 2916 3584 3314 3078 
Q 3713 2572 3713 1747 
Q 3713 922 3314 415 
Q 2916 -91 2278 -91 
Q 1894 -91 1617 61 
Q 1341 213 1159 525 
z
M 3116 1747 
Q 3116 2381 2855 2742 
Q 2594 3103 2138 3103 
Q 1681 3103 1420 2742 
Q 1159 2381 1159 1747 
Q 1159 1113 1420 752 
Q 1681 391 2138 391 
Q 2594 391 2855 752 
Q 3116 1113 3116 1747 
z
" transform="scale(0.015625)"/>
      <path id="DejaVuSans-75" d="M 544 1381 
L 544 3500 
L 1119 3500 
L 1119 1403 
Q 1119 906 1312 657 
Q 1506 409 1894 409 
Q 2359 409 2629 706 
Q 2900 1003 2900 1516 
L 2900 3500 
L 3475 3500 
L 3475 0 
L 2900 0 
L 2900 538 
Q 2691 219 2414 64 
Q 2138 -91 1772 -91 
Q 1169 -91 856 284 
Q 544 659 544 1381 
z
M 1991 3584 
L 1991 3584 
z
" transform="scale(0.015625)"/>
     </defs>
     <use xlink:href="#DejaVuSans-43"/>
     <use xlink:href="#DejaVuSans-6f" transform="translate(69.824219 0)"/>
     <use xlink:href="#DejaVuSans-6e" transform="translate(131.005859 0)"/>
     <use xlink:href="#DejaVuSans-76" transform="translate(194.384766 0)"/>
     <use xlink:href="#DejaVuSans-65" transform="translate(253.564453 0)"/>
     <use xlink:href="#DejaVuSans-72" transform="translate(315.087891 0)"/>
     <use xlink:href="#DejaVuSans-67" transform="translate(354.451172 0)"/>
     <use xlink:href="#DejaVuSans-65" transform="translate(417.927734 0)"/>
     <use xlink:href="#DejaVuSans-6e" transform="translate(479.451172 0)"/>
     <use xlink:href="#DejaVuSans-63" transform="translate(542.830078 0)"/>
     <use xlink:href="#DejaVuSans-65" transform="translate(597.810547 0)"/>
     <use xlink:href="#DejaVuSans-20" transform="translate(659.333984 0)"/>
     <use xlink:href="#DejaVuSans-63" transform="translate(691.121094 0)"/>
     <use xlink:href="#DejaVuSans-6f" transform="translate(746.101562 0)"/>
     <use xlink:href="#DejaVuSans-6d" transform="translate(807.283203 0)"/>
     <use xlink:href="#DejaVuSans-70" transform="translate(904.695312 0)"/>
     <use xlink:href="#DejaVuSans-61" transform="translate(968.171875 0)"/>
     <use xlink:href="#DejaVuSans-72" transform="translate(1029.451172 0)"/>
     <use xlink:href="#DejaVuSans-69" transform="translate(1070.564453 0)"/>
     <use xlink:href="#DejaVuSans-73" transform="translate(1098.347656 0)"/>
     <use xlink:href="#DejaVuSans-6f" transform="translate(1150.447266 0)"/>
     <use xlink:href="#DejaVuSans-6e" transform="translate(1211.628906 0)"/>
     <use xlink:href="#DejaVuSans-20" transform="translate(1275.007812 0)"/>
     <use xlink:href="#DejaVuSans-61" transform="translate(1306.794922 0)"/>
     <use xlink:href="#DejaVuSans-63" transform="translate(1368.074219 0)"/>
     <use xlink:href="#DejaVuSans-72" transform="translate(1423.054688 0)"/>
     <use xlink:href="#DejaVuSans-6f" transform="translate(1461.917969 0)"/>
     <use xlink:href="#DejaVuSans-73" transform="translate(1523.099609 0)"/>
     <use xlink:href="#DejaVuSans-73" transform="translate(1575.199219 0)"/>
     <use xlink:href="#DejaVuSans-20" transform="translate(1627.298828 0)"/>
     <use xlink:href="#DejaVuSans-72" transform="translate(1659.085938 0)"/>
     <use xlink:href="#DejaVuSans-75" transform="translate(1700.199219 0)"/>
     <use xlink:href="#DejaVuSans-6e" transform="translate(1763.578125 0)"/>
     <use xlink:href="#DejaVuSans-73" transform="translate(1826.957031 0)"/>
    </g>
   </g>
   <g id="legend_1">
    <g id="patch_7">
     <path d="M 584.89948 108.295338 
L 703.369 108.295338 
Q 705.035 108.295338 705.035 106.629338 
L 705.035 32.711 
Q 705.035 31.045 703.369 31.045 
L 584.89948 31.045 
Q 583.23348 31.045 583.23348 32.711 
L 583.23348 106.629338 
Q 583.23348 108.295338 584.89948 108.295338 
z
" style="fill: #ffffff; opacity: 0.8; stroke: #cccccc; stroke-linejoin: miter"/>
    </g>
    <g id="line2d_24">
     <path d="M 586.56548 37.790998 
L 594.89548 37.790998 
L 603.22548 37.790998 
" style="fill: none; stroke: #1f77b4; stroke-width: 1.5; stroke-linecap: square"/>
    </g>
    <g id="text_21">
     <!-- run_1770494072 best -->
     <g transform="translate(609.88948 40.706498) scale(0.0833 -0.0833)">
      <defs>
       <path id="DejaVuSans-5f" d="M 3263 -1063 
L 3263 -1509 
L -63 -1509 
L -63 -1063 
L 3263 -1063 
z
" transform="scale(0.015625)"/>
       <path id="DejaVuSans-62" d="M 3116 1747 
Q 3116 2381 2855 2742 
Q 2594 3103 2138 3103 
Q 1681 3103 1420 2742 
Q 1159 2381 1159 1747 
Q 1159 1113 1420 752 
Q 1681 391 2138 391 
Q 2594 391 2855 752 
Q 3116 1113 3116 1747 
z
M 1159 2969 
Q 1341 3281 1617 3432 
Q 1894 3584 2278 3584 
Q 2916 3584 3314 3078 
Q 3713 2572 3713 1747 
Q 3713 922 3314 415 
Q 2916 -91 2278 -91 
Q 1894 -91 1617 61 
Q 1341 213 1159 525 
L 1159 0 
L 581 0 
L 581 4863 
L 1159 4863 
L 1159 2969 
z
" transform="scale(0.015625)"/>
      </defs>
      <use xlink:href="#DejaVuSans-72"/>
      <use xlink:href="#DejaVuSans-75" transform="translate(41.113281 0)"/>
      <use xlink:href="#DejaVuSans-6e" transform="translate(104.492188 0)"/>
      <use xlink:href="#DejaVuSans-5f" transform="translate(167.871094 0)"/>
      <use xlink:href="#DejaVuSans-31" transform="translate(217.871094 0)"/>
      <use xlink:href="#DejaVuSans-37" transform="translate(281.494141 0)"/>
      <use xlink:href="#DejaVuSans-37" transform="translate(345.117188 0)"/>
      <use xlink:href="#DejaVuSans-30" transform="translate(408.740234 0)"/>
      <use xlink:href="#DejaVuSans-34" transform="translate(472.363281 0)"/>
      <use xlink:href="#DejaVuSans-39" transform="translate(535.986328 0)"/>
      <use xlink:href="#DejaVuSans-34" transform="translate(599.609375 0)"/>
      <use xlink:href="#DejaVuSans-30" transform="translate(663.232422 0)"/>
      <use xlink:href="#DejaVuSans-37" transform="translate(726.855469 0)"/>
      <use xlink:href="#DejaVuSans-32" transform="translate(790.478516 0)"/>
      <use xlink:href="#DejaVuSans-20" transform="translate(854.101562 0)"/>
      <use xlink:href="#DejaVuSans-62" transform="translate(885.888672 0)"/>
      <use xlink:href="#DejaVuSans-65" transform="translate(949.365234 0)"/>
      <use xlink:href="#DejaVuSans-73" transform="translate(1010.888672 0)"/>
      <use xlink:href="#DejaVuSans-74" transform="translate(1062.988281 0)"/>
     </g>
    </g>
    <g id="line2d_25">
     <path d="M 586.56548 50.249555 
L 594.89548 50.249555 
L 603.22548 50.249555 
" style="fill: none; stroke-dasharray: 5.55,2.4; stroke-dashoffset: 0; stroke: #ff7f0e; stroke-opacity: 0.6; stroke-width: 1.5"/>
    </g>
    <g id="text_22">
     <!-- run_1770494072 avg -->
     <g transform="translate(609.88948 53.165055) scale(0.0833 -0.0833)">
      <use xlink:href="#DejaVuSans-72"/>
      <use xlink:href="#DejaVuSans-75" transform="translate(41.113281 0)"/>
      <use xlink:href="#DejaVuSans-6e" transform="translate(104.492188 0)"/>
      <use xlink:href="#DejaVuSans-5f" transform="translate(167.871094 0)"/>
      <use xlink:href="#DejaVuSans-31" transform="translate(217.871094 0)"/>
      <use xlink:href="#DejaVuSans-37" transform="translate(281.494141 0)"/>
      <use xlink:href="#DejaVuSans-37" transform="translate(345.117188 0)"/>
      <use xlink:href="#DejaVuSans-30" transform="translate(408.740234 0)"/>
      <use xlink:href="#DejaVuSans-34" transform="translate(472.363281 0)"/>
      <use xlink:href="#DejaVuSans-39" transform="translate(535.986328 0)"/>
      <use xlink:href="#DejaVuSans-34" transform="translate(599.609375 0)"/>
      <use xlink:href="#DejaVuSans-30" transform="translate(663.232422 0)"/>
      <use xlink:href="#DejaVuSans-37" transform="translate(726.855469 0)"/>
      <use xlink:href="#DejaVuSans-32" transform="translate(790.478516 0)"/>
      <use xlink:href="#DejaVuSans-20" transform="translate(854.101562 0)"/>
      <use xlink:href="#DejaVuSans-61" transform="translate(885.888672 0)"/>
      <use xlink:href="#DejaVuSans-76" transform="translate(947.167969 0)"/>
      <use xlink:href="#DejaVuSans-67" transform="translate(1006.347656 0)"/>
     </g>
    </g>
    <g id="line2d_26">
     <path d="M 586.56548 62.708111 
L 594.89548 62.708111 
L 603.22548 62.708111 
" style="fill: none; stroke: #2ca02c; stroke-width: 1.5; stroke-linecap: square"/>
    </g>
    <g id="text_23">
     <!-- run_1770500916 best -->
     <g transform="translate(609.88948 65.623611) scale(0.0833 -0.0833)">
      <use xlink:href="#DejaVuSans-72"/>
      <use xlink:href="#DejaVuSans-75" transform="translate(41.113281 0)"/>
      <use xlink:href="#DejaVuSans-6e" transform="translate(104.492188 0)"/>
      <use xlink:href="#DejaVuSans-5f" transform="translate(167.871094 0)"/>
      <use xlink:href="#DejaVuSans-31" transform="translate(217.871094 0)"/>
      <use xlink:href="#DejaVuSans-37" transform="translate(281.494141 0)"/>
      <use xlink:href="#DejaVuSans-37" transform="translate(345.117188 0)"/>
      <use xlink:href="#DejaVuSans-30" transform="translate(408.740234 0)"/>
      <use xlink:href="#DejaVuSans-35" transform="translate(472.363281 0)"/>
      <use xlink:href="#DejaVuSans-30" transform="translate(535.986328 0)"/>
      <use xlink:href="#DejaVuSans-30" transform="translate(599.609375 0)"/>
      <use xlink:href="#DejaVuSans-39" transform="translate(663.232422 0)"/>
      <use xlink:href="#DejaVuSans-31" transform="translate(726.855469 0)"/>
      <use xlink:href="#DejaVuSans-36" transform="translate(790.478516 0)"/>
      <use xlink:href="#DejaVuSans-20" transform="translate(854.101562 0)"/>
      <use xlink:href="#DejaVuSans-62" transform="translate(885.888672 0)"/>
      <use xlink:href="#DejaVuSans-65" transform="translate(949.365234 0)"/>
      <use xlink:href="#DejaVuSans-73" transform="translate(1010.888672 0)"/>
      <use xlink:href="#DejaVuSans-74" transform="translate(1062.988281 0)"/>
     </g>
    </g>
    <g id="line2d_27">
     <path d="M 586.56548 75.166667 
L 594.89548 75.166667 
L 603.22548 75.166667 
" style="fill: none; stroke-dasharray: 5.55,2.4; stroke-dashoffset: 0; stroke: #d62728; stroke-opacity: 0.6; stroke-width: 1.5"/>
    </g>
    <g id="text_24">
     <!-- run_1770500916 avg -->
     <g transform="translate(609.88948 78.082167) scale(0.0833 -0.0833)">
      <use xlink:href="#DejaVuSans-72"/>
      <use xlink:href="#DejaVuSans-75" transform="translate(41.113281 0)"/>
      <use xlink:href="#DejaVuSans-6e" transform="translate(104.492188 0)"/>
      <use xlink:href="#DejaVuSans-5f" transform="translate(167.871094 0)"/>
      <use xlink:href="#DejaVuSans-31" transform="translate(217.871094 0)"/>
      <use xlink:href="#DejaVuSans-37" transform="translate(281.494141 0)"/>
      <use xlink:href="#DejaVuSans-37" transform="translate(345.117188 0)"/>
      <use xlink:href="#DejaVuSans-30" transform="translate(408.740234 0)"/>
      <use xlink:href="#DejaVuSans-35" transform="translate(472.363281 0)"/>
      <use xlink:href="#DejaVuSans-30" transform="translate(535.986328 0)"/>
      <use xlink:href="#DejaVuSans-30" transform="translate(599.609375 0)"/>
      <use xlink:href="#DejaVuSans-39" transform="translate(663.232422 0)"/>
      <use xlink:href="#DejaVuSans-31" transform="translate(726.855469 0)"/>
      <use xlink:href="#DejaVuSans-36" transform="translate(790.478516 0)"/>
      <use xlink:href="#DejaVuSans-20" transform="translate(854.101562 0)"/>
      <use xlink:href="#DejaVuSans-61" transform="translate(885.888672 0)"/>
      <use xlink:href="#DejaVuSans-76" transform="translate(947.167969 0)"/>
      <use xlink:href="#DejaVuSans-67" transform="translate(1006.347656 0)"/>
     </g>
    </g>
    <g id="line2d_28">
     <path d="M 586.56548 87.625223 
L 594.89548 87.625223 
L 603.22548 87.625223 
" style="fill: none; stroke: #9467bd; stroke-width: 1.5; stroke-linecap: square"/>
    </g>
    <g id="text_25">
     <!-- run_1770500965 best -->
     <g transform="translate(609.88948 90.540723) scale(0.0833 -0.0833)">
      <use xlink:href="#DejaVuSans-72"/>
      <use xlink:href="#DejaVuSans-75" transform="translate(41.113281 0)"/>
      <use xlink:href="#DejaVuSans-6e" transform="translate(104.492188 0)"/>
      <use xlink:href="#DejaVuSans-5f" transform="translate(167.871094 0)"/>
      <use xlink:href="#DejaVuSans-31" transform="translate(217.871094 0)"/>
      <use xlink:href="#DejaVuSans-37" transform="translate(281.494141 0)"/>
      <use xlink:href="#DejaVuSans-37" transform="translate(345.117188 0)"/>
      <use xlink:href="#DejaVuSans-30" transform="translate(408.740234 0)"/>
      <use xlink:href="#DejaVuSans-35" transform="translate(472.363281 0)"/>
      <use xlink:href="#DejaVuSans-30" transform="translate(535.986328 0)"/>
      <use xlink:href="#DejaVuSans-30" transform="translate(599.609375 0)"/>
      <use xlink:href="#DejaVuSans-39" transform="translate(663.232422 0)"/>
      <use xlink:href="#DejaVuSans-36" transform="translate(726.855469 0)"/>
      <use xlink:href="#DejaVuSans-35" transform="translate(790.478516 0)"/>
      <use xlink:href="#DejaVuSans-20" transform="translate(854.101562 0)"/>
      <use xlink:href="#DejaVuSans-62" transform="translate(885.888672 0)"/>
      <use xlink:href="#DejaVuSans-65" transform="translate(949.365234 0)"/>
      <use xlink:href="#DejaVuSans-73" transform="translate(1010.888672 0)"/>
      <use xlink:href="#DejaVuSans-74" transform="translate(1062.988281 0)"/>
     </g>
    </g>
    <g id="line2d_29">
     <path d="M 586.56548 100.08378 
L 594.89548 100.08378 
L 603.22548 100.08378 
" style="fill: none; stroke-dasharray: 5.55,2.4; stroke-dashoffset: 0; stroke: #8c564b; stroke-opacity: 0.6; stroke-width: 1.5"/>
    </g>
    <g id="text_26">
     <!-- run_1770500965 avg -->
     <g transform="translate(609.88948 102.99928) scale(0.0833 -0.0833)">
      <use xlink:href="#DejaVuSans-72"/>
      <use xlink:href="#DejaVuSans-75" transform="translate(41.113281 0)"/>
      <use xlink:href="#DejaVuSans-6e" transform="translate(104.492188 0)"/>
      <use xlink:href="#DejaVuSans-5f" transform="translate(167.871094 0)"/>
      <use xlink:href="#DejaVuSans-31" transform="translate(217.871094 0)"/>
      <use xlink:href="#DejaVuSans-37" transform="translate(281.494141 0)"/>
      <use xlink:href="#DejaVuSans-37" transform="translate(345.117188 0)"/>
      <use xlink:href="#DejaVuSans-30" transform="translate(408.740234 0)"/>
      <use xlink:href="#DejaVuSans-35" transform="translate(472.363281 0)"/>
      <use xlink:href="#DejaVuSans-30" transform="translate(535.986328 0)"/>
      <use xlink:href="#DejaVuSans-30" transform="translate(599.609375 0)"/>
      <use xlink:href="#DejaVuSans-39" transform="translate(663.232422 0)"/>
      <use xlink:href="#DejaVuSans-36" transform="translate(726.855469 0)"/>
      <use xlink:href="#DejaVuSans-35" transform="translate(790.478516 0)"/>
      <use xlink:href="#DejaVuSans-20" transform="translate(854.101562 0)"/>
      <use xlink:href="#DejaVuSans-61" transform="translate(885.888672 0)"/>
      <use xlink:href="#DejaVuSans-76" transform="translate(947.167969 0)"/>
      <use xlink:href="#DejaVuSans-67" transform="translate(1006.347656 0)"/>
     </g>
    </g>
   </g>
  </g>
 </g>
 <defs>
  <clipPath id="pffe03b5269">
   <rect x="44.66" y="26.88" width="664.54" height="363.16"/>
  </clipPath>
 </defs>
</svg>
